<?xml version="1.0" encoding="utf-8"?>
<!-- Generator: Adobe Illustrator 24.1.3, SVG Export Plug-In . SVG Version: 6.00 Build 0)  -->
<svg version="1.2" baseProfile="tiny" id="Layer_1" xmlns="http://www.w3.org/2000/svg" xmlns:xlink="http://www.w3.org/1999/xlink"
	 x="0px" y="0px" viewBox="0 0 500 500" overflow="visible" xml:space="preserve">
<g id="XMLID_163_">
	<g id="XMLID_329_">
		<path id="XMLID_110_" fill="#33495D" d="M426.41,432.94c48.58-37.01,70.21-139.63-8.66-189.96
			c-52.22-33.31-84.69-14.31-143.44-36.34c-71.71-26.89-82.4-108.15-169.63-68.17c-46.21,21.17-78.25,80.86-83.89,148.68
			c-5.52,66.42,17.97,112,65.99,143.19C199.53,435.16,312.51,434.29,426.41,432.94z"/>
		<path id="XMLID_109_" fill="#33495D" d="M254.89,130.47c-7.34,29.52,19.91,58.74,48.61,70.85c28.7,12.12,61.62,10.68,92.37,4.9
			c13.27-2.49,26.91-6,37.22-14.47c10.31-8.48,16.28-23.19,10.63-35.08c-4.99-10.48-17.12-15.86-28.69-18.61s-23.86-3.88-34.17-9.69
			c-9.77-5.5-16.71-14.62-25.21-21.83c-15.71-13.31-37.77-19.91-58.19-15.7C277.03,95.05,261.13,105.38,254.89,130.47z"/>
	</g>
	<g id="XMLID_162_">
		<g id="XMLID_160_">
			<g id="XMLID_27_">
				<path id="XMLID_155_" fill="#000415" d="M475.23,264.71v-22.33h-8.45c-1.02-3.9-2.56-7.59-4.54-10.98l5.98-6l-15.76-15.79
					l-5.98,5.99c-3.38-1.99-7.06-3.54-10.95-4.55v-8.47h-22.29v8.47c-3.9,1.02-7.57,2.57-10.95,4.55l-5.98-5.99l-15.76,15.79l5.98,6
					c-1.98,3.39-3.52,7.07-4.54,10.98h-8.45v22.33h8.45c1.02,3.9,2.56,7.59,4.54,10.98l-5.98,6l15.76,15.79l5.98-5.99
					c3.38,1.99,7.06,3.53,10.95,4.55v8.47h22.29v-8.47c3.9-1.03,7.57-2.57,10.95-4.55l5.98,5.99l15.76-15.79l-5.98-6
					c1.98-3.39,3.53-7.07,4.54-10.98H475.23z M424.38,272.89c-10.67,0-19.31-8.67-19.31-19.35c0-10.68,8.65-19.34,19.31-19.34
					c10.65,0,19.3,8.67,19.3,19.34C443.68,264.22,435.03,272.89,424.38,272.89z"/>
				<path id="XMLID_66_" fill="#000415" d="M407.89,320.66l-4.24-11.07l-4.19,1.61c-1.24-1.74-2.71-3.27-4.34-4.58l1.82-4.11
					l-10.81-4.83l-1.83,4.11c-2.06-0.34-4.17-0.41-6.3-0.17l-1.61-4.2l-11.05,4.25l1.61,4.2c-1.74,1.25-3.27,2.72-4.57,4.35
					l-4.1-1.83l-4.82,10.84l4.1,1.83c-0.34,2.06-0.4,4.18-0.17,6.31l-4.19,1.61l4.24,11.07l4.19-1.61c1.25,1.74,2.71,3.27,4.34,4.58
					l-1.82,4.11l10.81,4.83l1.83-4.11c2.06,0.34,4.17,0.4,6.3,0.17l1.61,4.2l11.05-4.25l-1.61-4.2c1.74-1.25,3.27-2.72,4.57-4.35
					l4.1,1.83l4.82-10.84l-4.1-1.83c0.34-2.06,0.41-4.18,0.17-6.31L407.89,320.66z M384.22,334.41c-5.29,2.03-11.22-0.62-13.25-5.92
					c-2.03-5.29,0.62-11.24,5.91-13.27c5.28-2.03,11.22,0.62,13.25,5.91C392.15,326.43,389.5,332.38,384.22,334.41z"/>
				<path id="XMLID_69_" fill="#000415" d="M371.67,281.81l-2.86-7.48l-2.83,1.09c-0.84-1.18-1.83-2.21-2.93-3.09l1.23-2.78
					l-7.31-3.26l-1.24,2.78c-1.39-0.23-2.82-0.28-4.25-0.11l-1.09-2.84l-7.47,2.87l1.09,2.84c-1.18,0.84-2.21,1.84-3.09,2.94
					l-2.77-1.24l-3.25,7.32l2.77,1.24c-0.23,1.39-0.27,2.82-0.11,4.26l-2.83,1.09l2.86,7.48l2.83-1.09
					c0.84,1.18,1.83,2.21,2.93,3.09l-1.23,2.78l7.31,3.26l1.24-2.78c1.39,0.23,2.82,0.27,4.26,0.11l1.09,2.84l7.47-2.87l-1.09-2.84
					c1.17-0.85,2.21-1.84,3.09-2.94l2.77,1.24l3.26-7.32l-2.77-1.24c0.23-1.39,0.28-2.82,0.11-4.26L371.67,281.81z M355.68,291.11
					c-3.57,1.37-7.58-0.42-8.96-4c-1.37-3.58,0.42-7.6,3.99-8.97c3.57-1.37,7.58,0.42,8.95,3.99
					C361.04,285.72,359.25,289.73,355.68,291.11z"/>
			</g>
			<path fill="#000415" d="M333.86,115.52c-19.45,0-35.21,15.8-35.21,35.28c0,11.22,5.22,21.22,13.38,27.69
				c6.02,4.77,13.6,7.6,21.84,7.6c8.26,0,15.84-2.83,21.84-7.6c8.14-6.46,13.38-16.47,13.38-27.69
				C369.07,131.31,353.31,115.52,333.86,115.52z M333.86,181.63c-8.24,0-15.82-2.83-21.84-7.6c2.25-9.93,4.33-18.5,6.48-20.67
				c1.94-1.94,5.92-3.37,9.65-4.15c-3.48-1.99-5.82-5.73-5.82-10.03c0-6.38,5.16-11.55,11.53-11.55c6.37,0,11.53,5.17,11.53,11.55
				c0,4.32-2.37,8.07-5.87,10.06c3.74,0.77,7.57,2.01,8.58,3.02c3.19,3.19,5.94,11.99,7.6,21.77
				C349.7,178.8,342.12,181.63,333.86,181.63z"/>
			<path fill="#000415" d="M140.83,217.06l6.64-12.56l2.7,2.49c1.61-6.48,1.35-13.51-1.2-20.23c-6.64-17.53-26.2-26.34-43.69-19.69
				c-17.49,6.65-26.29,26.25-19.65,43.78c6.64,17.53,26.2,26.34,43.69,19.69c7.16-2.72,12.86-7.62,16.65-13.65
				C143.27,216.85,141.2,216.88,140.83,217.06z M132.68,185.69c-1.41,2.94-4.33,4.65-7.38,4.66l-3.73,8.8
				c-0.35,0.82-0.73,1.62-1.15,2.4l-4.71,8.77c1.91,2.39,2.41,5.75,1,8.7c-1.96,4.1-6.87,5.82-10.95,3.86
				c-4.09-1.97-5.81-6.88-3.85-10.98c1.41-2.95,4.35-4.66,7.41-4.66l4.04-9.33c0.29-0.68,0.62-1.35,0.96-2.01l4.55-8.63
				c-1.9-2.39-2.41-5.75-1-8.69c1.53-3.2,4.85-4.94,8.18-4.62l0.42-0.37l2.35,1.13l0,0c0,0,0,0,0,0l2.35,1.13l-0.02,0.56
				C133.5,178.81,134.22,182.5,132.68,185.69z"/>
			<path fill="#000415" d="M195.86,89c-18.39,0.11-33.21,15.14-33.1,33.56c0.11,18.43,15.11,33.27,33.5,33.16
				c18.39-0.11,33.21-15.14,33.1-33.56C229.24,103.74,214.25,88.89,195.86,89z M196.06,125.43c-0.61,0-1.18-0.19-1.66-0.5
				l-21.64,15.01l-1.27-1.83l21.61-14.99c-0.06-0.24-0.11-0.5-0.11-0.76c0-1.3,0.81-2.41,1.95-2.85V93.93h2.22v25.58
				c1.14,0.45,1.95,1.55,1.95,2.85C199.12,124.06,197.75,125.43,196.06,125.43z"/>
		</g>
		<g id="XMLID_161_">
			<g id="XMLID_231_">
				<g id="XMLID_5_">
					<g id="XMLID_6_">
						<path id="XMLID_108_" fill="#33A8A5" stroke="#525252" stroke-miterlimit="10" d="M286.46,354.07
							c-1.97-30.5,11.34-62.07,33.78-80.13C320.93,304.59,307.74,335.62,286.46,354.07z"/>
						<path id="XMLID_107_" fill="#33A8A5" stroke="#525252" stroke-miterlimit="10" d="M316.57,282.15
							c-9.45,17.65-17.62,36.12-24.42,55.17c-8.25,23.13-14.75,47.71-28.89,67.1"/>
					</g>
					<g id="XMLID_7_">
						<path id="XMLID_106_" fill="#33A8A5" stroke="#525252" stroke-miterlimit="10" d="M279.38,373.25
							c11.35-25.45,33.89-44.68,58.73-50.12C327.53,350.41,303.74,371.21,279.38,373.25z"/>
						<path id="XMLID_105_" fill="#33A8A5" stroke="#525252" stroke-miterlimit="10" d="M332.01,328.74
							c-16.97,14.96-34.23,29.51-51.77,43.62"/>
					</g>
					<g id="XMLID_8_">
						<path id="XMLID_104_" fill="#33A8A5" stroke="#525252" stroke-miterlimit="10" d="M272.68,395.42
							c15.17-22.7,43.16-34.55,66.31-28.07C321.96,389.76,293.91,401.64,272.68,395.42z"/>
						<path id="XMLID_103_" fill="#33A8A5" stroke="#525252" stroke-miterlimit="10" d="M333.44,368.99
							c-19.88,12.46-41.33,21.67-63.45,27.2"/>
					</g>
					<g id="XMLID_9_">
						<path id="XMLID_102_" fill="#33A8A5" stroke="#525252" stroke-miterlimit="10" d="M280.87,365.53
							c4.85-25.56-2.42-54.05-18.62-72.9C255.62,317.75,261.95,347.19,280.87,365.53z"/>
						<path id="XMLID_101_" fill="none" stroke="#525252" stroke-miterlimit="10" d="M263.92,299.15
							c3.19,23.78,8.87,46.05,17.67,67.82"/>
					</g>
					<g id="XMLID_10_">
						<path id="XMLID_100_" fill="#33A8A5" stroke="#525252" stroke-miterlimit="10" d="M272.54,387.3
							c-2.07-26.28-15.51-50.96-35.17-64.58c1.14,13.92,4.83,27.33,10.69,39.53C254.81,376.27,264.71,385.15,272.54,387.3z"/>
						<path id="XMLID_99_" fill="#33A8A5" stroke="#525252" stroke-miterlimit="10" d="M240.29,328.04
							c7.73,21.91,18.86,42.23,32.74,59.81"/>
					</g>
				</g>
				<g id="XMLID_11_">
					<g id="XMLID_12_">
						<path id="XMLID_98_" fill="#33A8A5" stroke="#525252" stroke-miterlimit="10" d="M424.37,381
							c10.73-27.97,35.41-50.66,62.63-57.57C475.07,351.02,450.73,373.26,424.37,381z"/>
						<path id="XMLID_97_" fill="#33A8A5" stroke="#525252" stroke-miterlimit="10" d="M480.4,329.24
							c-15.57,11.86-30.36,24.97-44.15,39.16c-16.75,17.24-32.56,36.47-52.98,47.97"/>
					</g>
					<g id="XMLID_13_">
						<path id="XMLID_96_" fill="#33A8A5" stroke="#525252" stroke-miterlimit="10" d="M410.26,395.2
							c20.45-18.03,48.23-25.94,72.41-20.63C462.17,394.54,432.63,403.34,410.26,395.2z"/>
						<path id="XMLID_95_" fill="#33A8A5" stroke="#525252" stroke-miterlimit="10" d="M474.99,377.08
							c-21.12,6.4-42.33,12.29-63.6,17.69"/>
					</g>
					<g id="XMLID_14_">
						<path id="XMLID_94_" fill="#33A8A5" stroke="#525252" stroke-miterlimit="10" d="M395.27,412.21
							c22.7-14.02,52.28-13.13,70.1,2.11C441.14,427.32,411.49,426.43,395.27,412.21z"/>
						<path id="XMLID_93_" fill="#33A8A5" stroke="#525252" stroke-miterlimit="10" d="M459.79,413.5
							c-22.67,2.97-45.41,2.4-67.2-1.71"/>
					</g>
					<g id="XMLID_15_">
						<path id="XMLID_92_" fill="#33A8A5" stroke="#525252" stroke-miterlimit="10" d="M414.74,388.93
							c14.74-20.79,19.97-49.14,13.37-72.55C411.96,336.04,405.52,364.85,414.74,388.93z"/>
						<path id="XMLID_91_" fill="#33A8A5" stroke="#525252" stroke-miterlimit="10" d="M426.92,322.86
							c-6.91,22.49-11,44.65-12.12,67.64"/>
					</g>
					<g id="XMLID_16_">
						<path id="XMLID_90_" fill="#33A8A5" stroke="#525252" stroke-miterlimit="10" d="M398.48,404.92
							c8.92-24.25,7.14-51.74-4.66-71.91c-4.68,12.86-6.91,26.32-6.72,39.58C387.31,387.83,392.43,399.8,398.48,404.92z"/>
						<path id="XMLID_89_" fill="#33A8A5" stroke="#525252" stroke-miterlimit="10" d="M394.2,338.94
							c-2.13,22.68-0.6,45.33,4.47,66.67"/>
					</g>
				</g>
				<g id="XMLID_112_">
					<path id="XMLID_88_" fill="#33A8A5" stroke="#525252" stroke-miterlimit="10" d="M120.27,332.1
						c-10.94-33.52-41.46-60.61-76.98-68.3C58.22,292.8,85.3,315.88,120.27,332.1z"/>
					<path id="XMLID_87_" fill="#33A8A5" stroke="#525252" stroke-miterlimit="10" d="M122.12,337.3
						c-23.96-13.58-53.98-16.57-80.01-7.99C66.25,341.39,94.85,344.76,122.12,337.3z"/>
					<path id="XMLID_86_" fill="#33A8A5" stroke="#525252" stroke-miterlimit="10" d="M128.75,344.57
						c-25.9-3.6-53.01,2.8-74.05,17.46C78.55,370.72,107.16,365.08,128.75,344.57z"/>
					<path id="XMLID_85_" fill="#33A8A5" stroke="#525252" stroke-miterlimit="10" d="M136.82,360.45
						c-25.64-0.11-50.86,12.11-65.93,31.93c11.41,2.29,23.53,0.92,34-3.83C115.36,383.8,124.13,375.69,136.82,360.45z"/>
					<path id="XMLID_84_" fill="#33A8A5" stroke="#525252" stroke-miterlimit="10" d="M154.9,387.02
						c-25.29-4.34-52.23,3.51-70.46,20.54c10.88,4.14,23.07,4.8,34.2,1.86C129.78,406.48,139.8,399.94,154.9,387.02z"/>
					<path id="XMLID_83_" fill="#33A8A5" stroke="#525252" stroke-miterlimit="10" d="M127.6,333.69
						c-16.7-22.55-21.23-52.94-11.74-78.79c7.24,12.29,13.49,25.29,16.41,39.1C135.19,307.81,134.62,322.54,127.6,333.69z"/>
					<path id="XMLID_82_" fill="#33A8A5" stroke="#525252" stroke-miterlimit="10" d="M137.8,355.44
						c-3.95-23.96,4.22-49.35,21.49-66.71C161.28,313.53,153.71,338.78,137.8,355.44z"/>
					<g id="XMLID_113_">
						<path id="XMLID_81_" fill="none" stroke="#525252" stroke-miterlimit="10" d="M51.06,269.81
							c50.82,32.58,90.57,81.14,111.55,136.32"/>
						<path id="XMLID_80_" fill="none" stroke="#525252" stroke-miterlimit="10" d="M117.44,266.78
							c6.18,25.15,9.94,50.83,11.21,76.58"/>
						<path id="XMLID_79_" fill="none" stroke="#525252" stroke-miterlimit="10" d="M155.5,298.47
							c-2.02,20.29-8.28,40.12-18.28,57.99"/>
						<path id="XMLID_78_" fill="none" stroke="#525252" stroke-miterlimit="10" d="M52.81,329.9c23.3,4.44,46.98,6.85,70.67,7.2"/>
						<path id="XMLID_77_" fill="none" stroke="#525252" stroke-miterlimit="10" d="M66.85,360.04
							c21.48-1.56,42.62-6.78,62.16-15.34"/>
						<path id="XMLID_76_" fill="none" stroke="#525252" stroke-miterlimit="10" d="M79.72,388.76
							c19.82-9.91,39.65-19.83,59.47-29.74"/>
						<path id="XMLID_75_" fill="none" stroke="#525252" stroke-miterlimit="10" d="M92.61,406.26c25.88-5,33.57-10.97,62.3-19.24"
							/>
					</g>
				</g>
			</g>
			<g id="XMLID_4_">
				<g id="XMLID_47_">
					<path id="XMLID_65_" fill="#E06A58" d="M256.46,358.76c0,0,2.24,20.57,4.75,22.22c4.48,2.96,56.34,9.81,56.34,9.81l-1.7,13.52
						c0,0-71.03,6.4-74.05,2.84c-5.24-6.17-14.44-35.93-14.44-35.93L256.46,358.76z"/>
					<path id="XMLID_64_" fill="#F2AE30" d="M222.22,305.8l5.74-13.81c0,0,15.57,7.33,20.7,16.38c5.49,9.68,12.21,61.12,12.21,61.12
						s-27.48,6.34-32.54,3.65S222.22,305.8,222.22,305.8z"/>
				</g>
				<path id="XMLID_63_" fill="#0A2240" d="M178.51,241.72c-4.02-1.48-8.28-2.77-12.58-2.44c-4.31,0.33-8.7,2.61-10.17,6.41
					c-1.04,2.69-0.56,5.85-2.21,8.27c-1.58,2.32-4.71,3.28-7.63,3.47c-2.94,0.2-5.89-0.18-8.81,0.19c-9,1.2-15.42,11-12.47,19.02
					c1.18,3.2,3.59,6.25,3.04,9.58c-0.58,3.57-4.32,5.91-5.85,9.22c-2.04,4.41,0.4,9.75,4.42,12.75c4.02,2.99,9.25,4.13,14.32,4.89
					c6.99,1.05,14.2,1.54,21.1,0.06s13.5-5.12,17.07-10.82c1.59-2.52,2.55-5.37,4.39-7.74c3.81-4.89,10.55-6.78,15.85-10.25
					c5.8-3.8,10.05-11.2,6.64-16.99c-3.29-5.57-11.87-6.81-15.3-12.29c-1.42-2.27-1.76-4.96-2.68-7.43
					C186.7,245.16,184.45,243.91,178.51,241.72z"/>
				<g id="XMLID_48_">
					<path id="XMLID_62_" fill="#F9A07B" d="M201.94,309.99c1.01,1.17,2.21,2.45,3.87,2.56c1.75,0.12,3.21-1.12,4.34-2.32
						c5.81-6.16,9.65-13.72,11.2-21.52c-1.44-0.82-2.83-1.61-4.09-2.35c-1.17-0.7-2.05-1.67-2.55-2.81
						c-0.35-0.84-0.47-1.72-0.38-2.64c0.82-7.71,1.54-12,4.24-19.82c-12.83-2.9-24.93-6.34-31.88-12.17
						c-0.85,3.59-1.85,10.61-3.99,17.57c-2.28,7.37-5.84,14.66-11.88,17.79C182.66,291.3,193.23,300.01,201.94,309.99z"/>
					<path id="XMLID_61_" fill="#E06A58" d="M214.32,280.93c-0.09,0.92,0.03,1.81,0.38,2.64c-7.59,9.22-24.56-2.83-32.01-17.06
						c2.14-6.96,3.14-13.98,3.99-17.57c6.95,5.82,19.06,9.28,31.88,12.17C215.87,268.93,215.14,273.21,214.32,280.93z"/>
				</g>
				<g id="XMLID_49_">
					<path id="XMLID_60_" fill="#FFC73C" d="M235.46,392.44c-1.68,11.13,10.31,23.11,10.61,29.06c-25.46,0-78.79,1.56-105.95-2.14
						c-1.24-6.87,12.17-22.31,12.17-37.56c0-2.02-0.08-4.23-0.25-6.61c-0.43-6.81-1.43-14.9-2.55-23.2
						c-3.03-22.27-7.06-46.09-4.08-51.03c5.83-9.62,19.47-16.16,26.23-18.97c2.32-0.96,3.84-1.49,3.95-1.55
						c8.48,14.49,25.74,26.85,32.25,26.3c1.81-0.14,7.18-2.02,10.73-19.92c1.38,0.79,2.76,1.52,4.13,2.22
						c6.74,3.52,13.06,6.42,14.88,10.94c4.81,11.9,9.52,41.9,8.48,52.57c-1.05,10.76-5.37,18.98-8.4,29.78
						c-0.71,2.53-1.35,5.22-1.87,8.11C235.66,391.07,235.56,391.74,235.46,392.44z"/>
					<path id="XMLID_59_" fill="#FFBB33" d="M246.06,421.5c-25.46,0-78.79,1.56-105.95-2.14c-1.24-6.87,12.17-22.31,12.17-37.56
						c0-2.02-0.08-4.23-0.25-6.61c-0.43-6.81-1.43-14.9-2.55-23.2c4.82,5.09,11.84-16.43,14.95-10.13
						c16.83,34.03,30.09,42.97,53.15,42.97c6.87,0,13.22-0.95,20.07-2.51c-0.71,2.53-1.35,5.22-1.87,8.11
						c-0.12,0.66-0.24,1.33-0.34,2.03C233.78,403.56,245.77,415.54,246.06,421.5z"/>
					<path id="XMLID_58_" fill="#FCE172" d="M222.7,289.02c-1.09,7.96-4.34,18.69-13.77,21.52c-12.74,3.82-31.19-20.04-37.29-28.57
						c2.32-0.96,3.84-1.49,3.95-1.55c8.48,14.49,25.74,26.85,32.25,26.3c1.81-0.14,7.18-2.02,10.73-19.92
						C219.95,287.58,221.33,288.31,222.7,289.02z"/>
				</g>
				<g id="XMLID_50_">
					<g id="XMLID_51_">
						<g id="XMLID_52_">
							<polygon id="XMLID_57_" fill="#325F73" points="227.94,409.51 227.84,418.4 386.39,419.34 386.72,409.27 							"/>
						</g>
						<g id="XMLID_53_">
							<polygon id="XMLID_56_" fill="#325F73" points="455.11,330.24 451.58,326.65 336.1,325.89 278.16,409.84 281.19,412.28 
															"/>
							<polygon id="XMLID_55_" fill="#0B2D50" points="338.33,329 281.19,412.28 390.33,412.82 455.11,330.24 							"/>
						</g>
					</g>
					<ellipse id="XMLID_54_" fill="#3C738C" cx="365.9" cy="375.79" rx="12.7" ry="6.36"/>
				</g>
				<g id="XMLID_114_">
					<g id="XMLID_115_">
						
							<ellipse id="XMLID_116_" transform="matrix(0.1823 -0.9832 0.9832 0.1823 -47.0299 441.3156)" cx="241.82" cy="248.93" rx="17.82" ry="11.73"/>
					</g>
					<path id="XMLID_117_" fill="#0B2D50" d="M253.37,220.71c-1.19,8.42-4.94,17.71-10.41,27.97c-1.92-8.4-3.15-18.64-4.85-28.88
						c-1.73-10.26-3.93-20.52-7.74-28.9c-0.86-1.86-1.79-3.63-2.8-5.27c2.26-0.22,4.55,0,6.73,0.6c3.41,0.91,6.6,2.68,9.21,5.03
						c4.34,3.86,7.24,9.13,8.97,14.69C253.89,210.57,254.14,215.47,253.37,220.71z"/>
					<g id="XMLID_118_">
						<path id="XMLID_119_" fill="#F9A07B" d="M246.94,229.43c-0.06,1.66-0.17,3.35-0.33,5.03c-2.33,27.26-13.76,45.97-31.24,45.97
							c-24.68,0-40.68-27.73-40.68-54.9c0-26.8,16.39-46.2,35.57-43.96c11.06,1.27,19.14,4.95,24.88,10.34
							c3.79,3.59,6.54,7.92,8.41,12.85c2.14,5.52,3.17,11.78,3.39,18.51c0,0.02,0.02,0.04,0.02,0.06
							C247.03,225.32,247.01,227.34,246.94,229.43z"/>
						<path id="XMLID_120_" fill="#E06A58" d="M246.94,229.43c-0.74-2.63-1.83-5.21-3.32-7.51c-14.56,7.63-31.9,10.57-48.35,7.78
							c-3.13,2.61-6.19,5.19-9.27,7.76c0.06-12.4,0.24-20.8,5.06-26.8c4.53-5.64,12.09-7.76,19.25-8.68
							c8.06-1.06,16.25-1.01,24.29,0.15c3.08,0.43,6.27,1.1,8.95,2.65c2.14,5.52,3.17,11.78,3.39,18.51c0,0.02,0.02,0.04,0.02,0.06
							C247.03,225.32,247.01,227.34,246.94,229.43z"/>
					</g>
					<path id="XMLID_121_" fill="#0B2D50" d="M250.5,212.64c-3.39,2.87-7.63,5.25-12.4,7.17c-13.56,5.48-31.19,7.3-44.92,6.63
						c-6.75,14.86-9.48,20.19-11.21,33.16c-6.6-6.2-11.97-17.56-13.56-26.48c-1.58-8.9-1.42-18.23,1.05-26.98
						c3.9-13.79,13.73-21.16,20.54-24.75c1.7-0.93,3.23-1.58,4.42-2.05c8.7-3.37,18.51-3.06,27.44-0.33
						c4.87,1.52,8.97,4.08,12.42,7.24c6.97,6.3,11.27,14.84,14.05,21.24C249.21,209.44,249.92,211.21,250.5,212.64z"/>
					<path id="XMLID_122_" fill="#0B2D50" d="M253.37,220.71c-0.56-2.98-1.4-5.87-2.59-8.66c-0.66-1.58-1.48-3.11-2.43-4.58
						c-3.1-4.88-7.61-8.9-13.06-10.67c-1.55-2.18-3.19-4.15-4.91-5.89c-6.19-6.3-13.45-9.91-21.14-11.17
						c-6.4-1.04-13.06-0.45-19.21,1.64c1.7-0.93,3.23-1.58,4.42-2.05c8.7-3.37,18.51-3.06,27.44-0.33
						c4.87,1.52,8.97,4.08,12.42,7.24c3.41,0.91,6.6,2.68,9.21,5.03c4.34,3.86,7.24,9.13,8.97,14.69
						C253.89,210.57,254.14,215.47,253.37,220.71z"/>
					<g id="XMLID_123_">
						<g id="XMLID_124_">
							<path id="XMLID_125_" fill="none" stroke="#0B2D50" stroke-width="2" stroke-linecap="round" stroke-miterlimit="10" d="
								M201.05,237.43c4.56-2.61,9.3-3.79,15.94-1.36"/>
							<path id="XMLID_126_" fill="none" stroke="#0B2D50" stroke-width="2" stroke-linecap="round" stroke-miterlimit="10" d="
								M232.28,237.25c3.91-2.92,9.7-3.22,12.71,0"/>
							<path id="XMLID_127_" fill="none" stroke="#CC454E" stroke-width="2" stroke-linecap="round" stroke-miterlimit="10" d="
								M227.57,252.15c0.4,2.07,0.18,6.65-0.8,8.71"/>
							<ellipse id="XMLID_128_" fill="#262D40" cx="212.15" cy="250.57" rx="1.88" ry="2.97"/>
							<ellipse id="XMLID_129_" fill="#262D40" cx="236.75" cy="249.19" rx="1.88" ry="2.97"/>
						</g>
						<g id="XMLID_130_">
							<path id="XMLID_131_" fill="#CC454E" d="M225.24,264.91c0,0-0.37,0.72-1.07,1.69c-1.1,1.49-2.99,3.54-5.55,4.34h-0.01
								c-1.08,0.35-2.26,0.47-3.57,0.24c-3.85-0.69-4.86-4.24-5.04-6.98c-0.04-0.53-0.04-1.02-0.03-1.48
								c0.02-1.11,0.14-1.84,0.14-1.84C216.23,264.25,225.24,264.91,225.24,264.91z"/>
							<path id="XMLID_132_" fill="#FFFFFF" d="M225.24,264.91c0,0-0.37,0.72-1.07,1.69c-3.13-0.04-9.53-1.65-14.21-3.88
								c0.02-1.11,0.14-1.84,0.14-1.84C216.23,264.25,225.24,264.91,225.24,264.91z"/>
							<path id="XMLID_133_" fill="#E8729B" d="M218.6,270.92c-1.08,0.35-2.26,0.47-3.57,0.24c-3.85-0.69-4.86-4.24-5.04-6.98
								c1.86,0.23,3.66,0.94,5.16,2.08C216.71,267.46,217.9,269.09,218.6,270.92z"/>
						</g>
					</g>
					<g id="XMLID_134_">
						<path id="XMLID_135_" fill="#9BF3DA" d="M182.03,232.73c0,0-0.21-12.78,5.09-25.48c6.66-15.94,20.23-22.75,33.4-23.21
							c15.86-0.56,25.8,10.11,25.8,10.11s-5.17-9.13-15.35-11.76c-6.69-1.72-16.79-2-24.89,1.3c-8.35,3.39-18.75,12.81-22.51,22.76
							c-3.75,9.95-5.58,25.45-5.58,25.45L182.03,232.73z"/>
						<g id="XMLID_136_">
							
								<ellipse id="XMLID_137_" transform="matrix(0.9947 -0.1029 0.1029 0.9947 -24.4933 19.8153)" fill="#9BDDDA" cx="179.83" cy="247.33" rx="12.37" ry="18.78"/>
							
								<ellipse id="XMLID_138_" transform="matrix(0.989 -0.148 0.148 0.989 -34.8696 28.8741)" cx="176.54" cy="248.69" rx="8.03" ry="14.15"/>
						</g>
						<g id="XMLID_139_">
							<ellipse id="XMLID_140_" fill="#9BDDDA" cx="220.62" cy="276.69" rx="6.59" ry="4.11"/>
							<path id="XMLID_141_" fill="#9BDDDA" d="M187.53,262.95c0,0,9.68,12.46,26.5,13.74"/>
						</g>
					</g>
				</g>
				<g id="XMLID_142_">
					<g id="XMLID_143_">
						<g id="XMLID_144_">
							<g id="XMLID_145_">
								<path id="XMLID_146_" fill="#F9A07B" d="M227.84,385.79l-0.63,16.39c0,0-59.15,17.76-68.92,12.15
									c-4.77-2.75-9.22-17.85-12.54-32.6c-3.48-15.5-5.71-30.58-5.71-30.58l34.68-6.81c0,0,0.02,21.19,1.2,33.43
									c0.42,4.56,1.02,7.88,1.83,8.42C180.8,388.21,227.84,385.79,227.84,385.79z"/>
								<path id="XMLID_147_" fill="#E06A58" d="M175.91,377.74c-6.3,2.05-18.46,5.22-30.16,3.97c-3.48-15.5-5.71-30.58-5.71-30.58
									l34.68-6.81C174.72,344.31,174.74,365.49,175.91,377.74z"/>
							</g>
							<g id="XMLID_148_">
								<path id="XMLID_149_" fill="#F9A07B" d="M226.16,385.95c8.8-1.89,23.69-6.42,29.87-7.97c4.39-1.11,15.81,4.82,18.83,10.4
									c1.32,2.44,2.57,16.26-2,14.83c-2.29-0.72-1.91-6.64-2.63-9.06c-0.58-1.97-2.44-3.87-5.28-5.51
									c1.89,4.72,1.82,8.85,1.62,13.95c-0.04,1.13-0.11,2.31-0.65,3.28c-0.55,0.97-1.74,1.67-2.76,1.24
									c-1.04-0.43-1.4-1.73-1.64-2.87c-0.81-3.94-1.63-7.87-1.95-12.32c0.08,4.38-0.01,8.76-0.29,13.13
									c-0.2,3.34-1.86,5.18-3.9,4.59c-0.91-0.26-1.28-1.1-1.67-2.2c-0.61,2.14-2.15,4.51-4.13,3.61c-1.21-0.54-1.95-4.91-1.74-9.4
									c-3.81,2.37-8.1,3.37-13.05,3.6c-4.44,0.2-8.98-0.63-11.65-3.65C223.4,396.87,224.95,389.88,226.16,385.95z"/>
								<path id="XMLID_150_" fill="none" stroke="#CC454E" stroke-linecap="round" stroke-miterlimit="10" d="M253.8,406.76
									c0.3-3.55-0.01-7.14-0.91-10.57"/>
							</g>
						</g>
						<path id="XMLID_151_" fill="#FFC73C" d="M170.82,309.95c-2.52-7.1-11.73-21.64-11.73-21.64s-14.06,5.86-19.06,15.81
							c-8.45,16.85-4.15,65.23-4.15,65.23c11.38,4.78,34.24,4.85,43.96,3.47C179.84,372.83,175.86,324.15,170.82,309.95z"/>
					</g>
					<path id="XMLID_152_" fill="none" stroke="#F2AE30" stroke-linecap="round" stroke-miterlimit="10" d="M172.61,312.93
						c3.84,18.4,5.89,35.55,6.55,52.36"/>
				</g>
			</g>
			<rect id="XMLID_3_" x="70.34" y="416.42" fill="#0B2D50" width="403.3" height="10.14"/>
		</g>
	</g>
</g>
</svg>
